M48
;DRILL file {KiCad (2015-11-29 BZR 6336, Git 7b0d981)-product} date 01/12/2015 19:46:44
;FORMAT={-:-/ absolute / metric / decimal}
FMAT,2
METRIC,TZ
T1C0.300
T2C0.500
T3C0.800
T4C0.900
T5C1.000
T6C1.100
T7C2.000
T8C2.600
T9C3.200
%
G90
G05
M71
T1
X25.4Y-59.6
X28.Y-59.6
X29.Y-80.682
X29.Y-93.682
X30.4Y-59.6
X33.Y-59.6
X38.2Y-59.6
X39.5Y-42.5
X39.5Y-45.
X39.5Y-47.
X40.6Y-59.6
X42.Y-80.682
X42.Y-93.682
X42.8Y-46.6
X43.Y-62.8
X43.2Y-59.6
X43.8Y-36.8
X43.8Y-45.4
X45.2Y-61.4
X45.6Y-59.6
X46.4Y-45.4
X46.75Y-69.75
X48.5Y-65.75
X51.2Y-60.2
X51.6Y-55.2
X51.6Y-58.
X53.137Y-65.629
X53.2Y-60.
X54.5Y-65.604
X54.6Y-60.
X55.Y-80.682
X55.Y-93.682
X55.8Y-55.2
X56.1Y-59.3
X57.Y-57.925
X57.25Y-71.25
X58.Y-59.275
X58.75Y-61.654
X58.75Y-65.875
X59.Y-55.
X59.Y-57.925
X59.7Y-61.925
X59.75Y-65.875
X60.Y-59.275
X61.Y-57.925
X62.Y-59.325
X62.035Y-71.225
X63.Y-57.925
X63.3Y-54.6
X64.Y-59.325
X65.Y-57.925
X65.988Y-44.387
X66.Y-45.4
X66.Y-59.275
X66.04Y-46.385
X66.4Y-40.
X66.8Y-35.1
X67.Y-45.6
X67.Y-57.925
X67.9Y-33.8
X68.Y-59.325
X68.Y-80.682
X68.Y-93.682
X68.4Y-65.675
X68.6Y-47.4
X69.Y-57.925
X69.925Y-38.4
X70.Y-36.6
X70.Y-59.275
X70.104Y-68.834
X70.4Y-44.
X71.Y-57.925
X71.Y-48.2
X71.1Y-34.4
X71.976Y-41.335
X72.Y-59.275
X72.091Y-40.442
X72.497Y-64.017
X72.6Y-39.7
X72.8Y-50.35
X72.849Y-57.875
X73.4Y-47.4
X74.Y-29.25
X74.Y-48.8
X74.025Y-27.8
X74.047Y-65.
X74.097Y-60.1
X74.122Y-61.
X74.676Y-62.992
X75.275Y-33.825
X75.5Y-36.6
X75.5Y-37.9
X75.946Y-65.024
X76.Y-67.5
X76.2Y-48.
X76.5Y-50.
X76.793Y-34.925
X76.812Y-58.587
X77.125Y-47.
X77.575Y-53.937
X77.661Y-39.487
X77.8Y-73.
X77.858Y-45.588
X78.Y-38.6
X78.Y-65.5
X78.Y-67.5
X78.481Y-56.347
X78.56Y-44.986
X78.612Y-57.288
X79.Y-67.8
X79.Y-46.4
X79.117Y-75.2
X79.2Y-55.6
X79.773Y-47.327
X80.Y-64.5
X80.Y-67.
X80.6Y-54.4
X80.678Y-63.278
X80.713Y-85.313
X80.8Y-58.013
X80.811Y-60.298
X81.004Y-46.
X81.2Y-56.2
X81.3Y-87.
X81.4Y-102.6
X81.5Y-65.5
X81.5Y-69.
X81.6Y-49.2
X81.992Y-59.381
X82.Y-63.5
X82.4Y-54.4
X82.708Y-60.715
X83.Y-70.5
X83.5Y-65.5
X84.Y-63.5
X84.2Y-109.
X84.5Y-72.
X84.631Y-61.195
X85.5Y-65.5
X85.6Y-52.175
X85.673Y-84.727
X86.Y-63.5
X86.Y-73.5
X86.2Y-75.2
X86.6Y-85.2
X86.6Y-110.6
X87.Y-42.3
X87.Y-74.5
X87.5Y-65.5
X87.587Y-55.013
X87.8Y-56.2
X88.Y-50.4
X88.Y-63.5
X88.2Y-44.6
X88.6Y-110.6
X89.Y-74.5
X89.013Y-53.587
X89.13Y-44.575
X89.177Y-37.39
X89.5Y-65.5
X89.5Y-68.5
X90.Y-54.4
X90.Y-57.8
X90.Y-70.5
X90.387Y-88.879
X90.387Y-91.732
X90.725Y-57.
X91.Y-74.5
X91.175Y-65.125
X91.787Y-41.125
X92.Y-71.
X92.Y-73.
X92.Y-90.
X92.125Y-65.125
X92.2Y-54.
X94.6Y-56.4
X94.6Y-66.6
X94.742Y-52.07
X94.8Y-71.2
X94.8Y-72.614
X94.8Y-75.4
X95.6Y-64.6
X95.838Y-61.176
X96.2Y-72.6
X96.4Y-75.4
X96.45Y-48.2
X96.6Y-26.461
X96.774Y-54.356
X97.2Y-38.6
X97.4Y-35.4
X97.6Y-66.6
X98.Y-110.6
X98.072Y-34.728
X98.6Y-77.4
X98.6Y-79.
X98.8Y-26.4
X98.8Y-62.6
X99.Y-66.6
X99.Y-72.6
X99.398Y-64.605
X99.8Y-63.8
X99.8Y-35.
X100.Y-25.4
X100.Y-41.8
X100.335Y-66.774
X101.4Y-62.2
X101.419Y-65.619
X101.887Y-90.132
X101.887Y-91.732
X102.125Y-63.8
X102.45Y-46.35
X102.6Y-44.6
X102.8Y-57.
X102.8Y-76.4
X102.8Y-88.8
X102.87Y-61.468
X104.14Y-61.468
X104.145Y-66.745
X104.2Y-25.8
X104.2Y-57.
X105.2Y-74.4
X105.4Y-56.6
X105.75Y-44.65
X105.889Y-43.166
X106.Y-41.1
X106.2Y-76.4
X107.Y-110.6
X107.2Y-36.
X107.2Y-39.2
X107.5Y-41.5
X107.6Y-54.8
X108.Y-76.4
X108.5Y-44.5
X108.8Y-56.6
X109.2Y-38.4
X109.8Y-76.4
X110.2Y-33.6
X110.2Y-55.875
X110.4Y-57.325
X110.8Y-34.8
X111.Y-41.
X111.4Y-48.
X111.4Y-53.2
X111.6Y-76.4
X113.2Y-55.6
X113.4Y-50.
X113.4Y-76.4
X113.6Y-40.8
X113.8Y-56.8
X113.825Y-63.425
X114.275Y-41.6
X114.62Y-43.58
X114.8Y-36.8
X114.8Y-34.
T2
X46.137Y-65.754
X50.Y-58.
X63.4Y-34.9
X86.6Y-32.562
X86.6Y-38.6
X89.6Y-50.6
T3
X23.368Y-28.829
X25.908Y-28.829
X83.99Y-28.52
X83.99Y-31.06
X83.99Y-33.6
X83.99Y-36.14
X83.99Y-38.68
X84.13Y-19.4
X86.67Y-19.4
X91.61Y-28.52
X91.61Y-31.06
X91.61Y-33.6
X91.61Y-36.14
X91.61Y-38.68
X92.8Y-43.06
X92.8Y-48.14
X94.59Y-28.52
X94.59Y-31.06
X94.59Y-33.6
X94.59Y-36.14
X94.59Y-38.68
X98.4Y-43.06
X98.4Y-48.14
X102.21Y-28.52
X102.21Y-31.06
X102.21Y-33.6
X102.21Y-36.14
X102.21Y-38.68
X104.Y-43.
X104.Y-48.08
X105.39Y-28.52
X105.39Y-31.06
X105.39Y-33.6
X105.39Y-36.14
X105.39Y-38.68
X109.6Y-43.06
X109.6Y-48.14
X113.01Y-28.52
X113.01Y-31.06
X113.01Y-33.6
X113.01Y-36.14
X113.01Y-38.68
T4
X44.45Y-48.768
X46.99Y-48.768
X49.53Y-48.768
X52.07Y-48.768
X74.46Y-23.
X77.Y-23.
X79.54Y-23.
X117.Y-26.2
X117.Y-29.6
X117.Y-33.
X117.Y-36.4
X117.Y-39.8
X117.Y-43.2
X117.Y-46.6
X117.Y-51.26
X117.Y-53.8
X117.Y-56.34
X117.Y-59.46
X117.Y-62.
X117.Y-64.54
T5
X22.83Y-52.34
X22.83Y-72.66
X25.37Y-52.34
X25.37Y-72.66
X27.91Y-52.34
X27.91Y-72.66
X30.45Y-52.34
X30.45Y-72.66
X32.99Y-52.34
X32.99Y-72.66
X35.53Y-52.34
X35.53Y-72.66
X38.07Y-52.34
X38.07Y-72.66
X40.61Y-52.34
X40.61Y-72.66
X43.15Y-52.34
X43.15Y-72.66
X45.69Y-52.34
X45.69Y-72.66
X48.23Y-52.34
X48.23Y-72.66
X50.77Y-52.34
X50.77Y-72.66
X53.31Y-52.34
X53.31Y-72.66
X53.92Y-19.4
X55.85Y-52.34
X55.85Y-72.66
X56.46Y-19.4
X58.39Y-52.34
X58.39Y-72.66
X59.Y-19.4
X60.93Y-52.34
X60.93Y-72.66
X61.54Y-19.4
X63.47Y-52.34
X63.47Y-72.66
X64.08Y-19.4
X66.01Y-52.34
X66.01Y-72.66
X68.55Y-52.34
X68.55Y-72.66
X69.32Y-19.4
X71.09Y-52.34
X71.09Y-72.66
X71.86Y-19.4
X73.63Y-52.34
X73.63Y-72.66
X74.4Y-19.4
X76.17Y-52.34
X76.17Y-72.66
X76.94Y-19.4
X79.48Y-19.4
X95.25Y-19.812
X95.25Y-22.352
X97.79Y-19.812
X97.79Y-22.352
X100.33Y-19.812
X100.33Y-22.352
X102.87Y-19.812
X102.87Y-22.352
X105.41Y-19.812
X105.41Y-22.352
T6
X80.5Y-89.
X80.5Y-105.
X83.Y-89.
X83.Y-105.
X85.5Y-89.
X85.5Y-105.
X94.5Y-89.
X94.5Y-105.
X97.Y-89.
X97.Y-105.
X99.5Y-89.
X99.5Y-105.
X108.5Y-89.
X108.75Y-105.
X111.Y-89.
X111.25Y-105.
X113.5Y-89.
X113.75Y-105.
T7
X78.25Y-82.
X78.25Y-98.
X87.75Y-82.
X87.75Y-98.
X92.25Y-82.
X92.25Y-98.
X101.75Y-82.
X101.75Y-98.
X106.25Y-82.
X106.5Y-98.
X115.75Y-82.
X116.Y-98.
T8
X30.301Y-25.7
X35.Y-22.701
X42.301Y-25.7
X47.Y-22.701
T9
X35.Y-28.7
X47.Y-28.7
T0
M30
