G04 #@! TF.FileFunction,Soldermask,Bot*
%FSLAX46Y46*%
G04 Gerber Fmt 4.6, Leading zero omitted, Abs format (unit mm)*
G04 Created by KiCad (PCBNEW (2015-11-29 BZR 6336, Git 7b0d981)-product) date 01/12/2015 20:30:35*
%MOMM*%
G01*
G04 APERTURE LIST*
%ADD10C,0.100000*%
%ADD11R,1.700000X1.900000*%
%ADD12C,3.600000*%
%ADD13C,2.200000*%
%ADD14C,2.400000*%
%ADD15O,3.400000X5.400000*%
%ADD16R,1.900000X1.650000*%
%ADD17R,1.650000X1.900000*%
%ADD18R,1.924000X3.200000*%
%ADD19O,1.924000X3.200000*%
%ADD20R,2.200000X2.200000*%
%ADD21R,2.099260X3.699460*%
%ADD22R,1.900000X1.700000*%
%ADD23R,1.500000X2.500000*%
%ADD24R,3.900000X2.500000*%
%ADD25R,2.000000X2.000000*%
%ADD26C,2.000000*%
%ADD27O,4.900000X6.400000*%
%ADD28C,4.900000*%
%ADD29C,3.900000*%
%ADD30R,0.800000X1.200000*%
%ADD31R,2.127200X2.432000*%
%ADD32O,2.127200X2.432000*%
%ADD33R,2.000000X2.400000*%
%ADD34R,2.400000X2.000000*%
%ADD35R,0.999440X1.949400*%
%ADD36O,0.999440X1.949400*%
%ADD37R,1.950000X1.000000*%
%ADD38O,1.950000X1.000000*%
%ADD39R,0.999440X2.299920*%
%ADD40O,0.999440X2.299920*%
%ADD41R,1.300000X1.700000*%
%ADD42R,1.200000X1.700000*%
%ADD43R,2.400000X2.599640*%
%ADD44R,1.799540X3.897580*%
%ADD45R,0.700000X1.300000*%
%ADD46R,1.700000X0.700000*%
G04 APERTURE END LIST*
D10*
D11*
X72000000Y-28850000D03*
X72000000Y-26150000D03*
D12*
X25000000Y-110000000D03*
X115000000Y-110000000D03*
X115000000Y-20000000D03*
X25000000Y-20000000D03*
D13*
X117000000Y-36400000D03*
D14*
X83000000Y-89000000D03*
D15*
X87750000Y-82000000D03*
X78250000Y-82000000D03*
D14*
X85500000Y-89000000D03*
X80500000Y-89000000D03*
X83000000Y-105000000D03*
D15*
X87750000Y-98000000D03*
X78250000Y-98000000D03*
D14*
X85500000Y-105000000D03*
X80500000Y-105000000D03*
D16*
X71050000Y-45600000D03*
X68550000Y-45600000D03*
D17*
X25400000Y-55350000D03*
X25400000Y-57850000D03*
D18*
X76170000Y-72660000D03*
D19*
X73630000Y-72660000D03*
X71090000Y-72660000D03*
X68550000Y-72660000D03*
X66010000Y-72660000D03*
X63470000Y-72660000D03*
X60930000Y-72660000D03*
X58390000Y-72660000D03*
X55850000Y-72660000D03*
X53310000Y-72660000D03*
X50770000Y-72660000D03*
X48230000Y-72660000D03*
X45690000Y-72660000D03*
X43150000Y-72660000D03*
X40610000Y-72660000D03*
X38070000Y-72660000D03*
X35530000Y-72660000D03*
X32990000Y-72660000D03*
X30450000Y-72660000D03*
X27910000Y-72660000D03*
X25370000Y-72660000D03*
X22830000Y-72660000D03*
D18*
X76170000Y-52340000D03*
D19*
X73630000Y-52340000D03*
X71090000Y-52340000D03*
X68550000Y-52340000D03*
X66010000Y-52340000D03*
X63470000Y-52340000D03*
X60930000Y-52340000D03*
X58390000Y-52340000D03*
X55850000Y-52340000D03*
X53310000Y-52340000D03*
X50770000Y-52340000D03*
X48230000Y-52340000D03*
X45690000Y-52340000D03*
X43150000Y-52340000D03*
X40610000Y-52340000D03*
X38070000Y-52340000D03*
X35530000Y-52340000D03*
X32990000Y-52340000D03*
X30450000Y-52340000D03*
X27910000Y-52340000D03*
X25370000Y-52340000D03*
X22830000Y-52340000D03*
D20*
X91610000Y-38680000D03*
D13*
X91610000Y-36140000D03*
X91610000Y-33600000D03*
X91610000Y-31060000D03*
X91610000Y-28520000D03*
X83990000Y-28520000D03*
X83990000Y-31060000D03*
X83990000Y-33600000D03*
X83990000Y-36140000D03*
D20*
X83990000Y-38680000D03*
D17*
X27940000Y-55350000D03*
X27940000Y-57850000D03*
X30400000Y-55350000D03*
X30400000Y-57850000D03*
D16*
X26000000Y-26500000D03*
X23500000Y-26500000D03*
X98850000Y-74000000D03*
X96350000Y-74000000D03*
D13*
X104000000Y-48080000D03*
X104000000Y-43000000D03*
D16*
X22750000Y-70000000D03*
X25250000Y-70000000D03*
D17*
X43180000Y-55350000D03*
X43180000Y-57850000D03*
D16*
X98850000Y-71200000D03*
X96350000Y-71200000D03*
D17*
X38200000Y-55350000D03*
X38200000Y-57850000D03*
X58250000Y-35000000D03*
X58250000Y-32500000D03*
D16*
X107150000Y-74400000D03*
X109650000Y-74400000D03*
X107150000Y-72200000D03*
X109650000Y-72200000D03*
D17*
X40600000Y-55350000D03*
X40600000Y-57850000D03*
X51800000Y-31050000D03*
X51800000Y-28550000D03*
X33000000Y-55350000D03*
X33000000Y-57850000D03*
X58000000Y-69750000D03*
X58000000Y-67250000D03*
X48250000Y-69750000D03*
X48250000Y-67250000D03*
X110400000Y-61450000D03*
X110400000Y-58950000D03*
D16*
X99050000Y-56400000D03*
X96550000Y-56400000D03*
D17*
X88200000Y-48650000D03*
X88200000Y-46150000D03*
X39400000Y-40050000D03*
X39400000Y-37550000D03*
X68400000Y-69750000D03*
X68400000Y-67250000D03*
X60750000Y-69750000D03*
X60750000Y-67250000D03*
D16*
X109650000Y-51000000D03*
X107150000Y-51000000D03*
X109650000Y-53200000D03*
X107150000Y-53200000D03*
D21*
X66400000Y-29350820D03*
X66400000Y-23849180D03*
D22*
X89150000Y-109000000D03*
X86450000Y-109000000D03*
D11*
X112600000Y-65650000D03*
X112600000Y-68350000D03*
X48260000Y-57950000D03*
X48260000Y-55250000D03*
D22*
X112050000Y-72200000D03*
X114750000Y-72200000D03*
X112050000Y-74400000D03*
X114750000Y-74400000D03*
D11*
X45720000Y-57950000D03*
X45720000Y-55250000D03*
X55750000Y-67150000D03*
X55750000Y-69850000D03*
X50750000Y-67150000D03*
X50750000Y-69850000D03*
X112600000Y-58850000D03*
X112600000Y-61550000D03*
X90400000Y-45950000D03*
X90400000Y-43250000D03*
X65800000Y-67150000D03*
X65800000Y-69850000D03*
X63250000Y-67150000D03*
X63250000Y-69850000D03*
X96000000Y-45950000D03*
X96000000Y-43250000D03*
D22*
X104950000Y-53200000D03*
X102250000Y-53200000D03*
X104950000Y-51000000D03*
X102250000Y-51000000D03*
X85950000Y-46200000D03*
X83250000Y-46200000D03*
D11*
X75600000Y-28850000D03*
X75600000Y-26150000D03*
X79200000Y-28850000D03*
X79200000Y-26150000D03*
D22*
X85950000Y-48400000D03*
X83250000Y-48400000D03*
X83950000Y-43200000D03*
X81250000Y-43200000D03*
X83950000Y-41000000D03*
X81250000Y-41000000D03*
D23*
X50900000Y-34900000D03*
X53200000Y-34900000D03*
X55500000Y-34900000D03*
D24*
X53200000Y-41100000D03*
D23*
X27200000Y-34400000D03*
X29500000Y-34400000D03*
X31800000Y-34400000D03*
D24*
X29500000Y-40600000D03*
D25*
X25908000Y-28829000D03*
D26*
X23368000Y-28829000D03*
D14*
X97000000Y-105000000D03*
D15*
X101750000Y-98000000D03*
X92250000Y-98000000D03*
D14*
X99500000Y-105000000D03*
X94500000Y-105000000D03*
X111000000Y-89000000D03*
D15*
X115750000Y-82000000D03*
X106250000Y-82000000D03*
D14*
X113500000Y-89000000D03*
X108500000Y-89000000D03*
X97000000Y-89000000D03*
D15*
X101750000Y-82000000D03*
X92250000Y-82000000D03*
D14*
X99500000Y-89000000D03*
X94500000Y-89000000D03*
X111250000Y-105000000D03*
D15*
X116000000Y-98000000D03*
X106500000Y-98000000D03*
D14*
X113750000Y-105000000D03*
X108750000Y-105000000D03*
D25*
X86670000Y-19400000D03*
D26*
X84130000Y-19400000D03*
D22*
X98150000Y-109000000D03*
X95450000Y-109000000D03*
D11*
X81000000Y-38550000D03*
X81000000Y-35850000D03*
D22*
X73450000Y-45600000D03*
X76150000Y-45600000D03*
D20*
X102210000Y-38680000D03*
D13*
X102210000Y-36140000D03*
X102210000Y-33600000D03*
X102210000Y-31060000D03*
X102210000Y-28520000D03*
X94590000Y-28520000D03*
X94590000Y-31060000D03*
X94590000Y-33600000D03*
X94590000Y-36140000D03*
D20*
X94590000Y-38680000D03*
X113010000Y-38680000D03*
D13*
X113010000Y-36140000D03*
X113010000Y-33600000D03*
X113010000Y-31060000D03*
X113010000Y-28520000D03*
X105390000Y-28520000D03*
X105390000Y-31060000D03*
X105390000Y-33600000D03*
X105390000Y-36140000D03*
D20*
X105390000Y-38680000D03*
D13*
X117000000Y-33000000D03*
X117000000Y-46600000D03*
D27*
X35000000Y-28700140D03*
D28*
X35000000Y-22700660D03*
D29*
X30301000Y-25700400D03*
D27*
X47000000Y-28700140D03*
D28*
X47000000Y-22700660D03*
D29*
X42301000Y-25700400D03*
D20*
X117000000Y-51260000D03*
D13*
X117000000Y-53800000D03*
X117000000Y-56340000D03*
X117000000Y-29600000D03*
X117000000Y-26200000D03*
D20*
X117000000Y-59460000D03*
D13*
X117000000Y-62000000D03*
X117000000Y-64540000D03*
X117000000Y-43200000D03*
X117000000Y-39800000D03*
X44450000Y-48768000D03*
D20*
X46990000Y-48768000D03*
D13*
X49530000Y-48768000D03*
X52070000Y-48768000D03*
D20*
X95250000Y-22352000D03*
D13*
X95250000Y-19812000D03*
X97790000Y-22352000D03*
X97790000Y-19812000D03*
X100330000Y-22352000D03*
X100330000Y-19812000D03*
X102870000Y-22352000D03*
X102870000Y-19812000D03*
X105410000Y-22352000D03*
X105410000Y-19812000D03*
D11*
X53250000Y-67150000D03*
X53250000Y-69850000D03*
D30*
X43800000Y-46600000D03*
X44400000Y-46600000D03*
X45000000Y-46600000D03*
X46400000Y-46600000D03*
X47000000Y-46600000D03*
X47600000Y-46600000D03*
D22*
X104650000Y-109000000D03*
X107350000Y-109000000D03*
D31*
X53920000Y-19400000D03*
D32*
X56460000Y-19400000D03*
X59000000Y-19400000D03*
X61540000Y-19400000D03*
X64080000Y-19400000D03*
D33*
X61000000Y-34750000D03*
X61000000Y-30750000D03*
D34*
X98800000Y-54000000D03*
X94800000Y-54000000D03*
D33*
X41800000Y-40800000D03*
X41800000Y-36800000D03*
D22*
X56250000Y-22200000D03*
X58950000Y-22200000D03*
D20*
X74460000Y-23000000D03*
D13*
X77000000Y-23000000D03*
X79540000Y-23000000D03*
D22*
X69050000Y-23000000D03*
X71750000Y-23000000D03*
D31*
X69320000Y-19400000D03*
D32*
X71860000Y-19400000D03*
X74400000Y-19400000D03*
X76940000Y-19400000D03*
X79480000Y-19400000D03*
D33*
X104400000Y-72400000D03*
X104400000Y-76400000D03*
D11*
X79900000Y-50150000D03*
X79900000Y-52850000D03*
D13*
X92800000Y-43060000D03*
X92800000Y-48140000D03*
X98400000Y-43060000D03*
X98400000Y-48140000D03*
X109600000Y-48140000D03*
X109600000Y-43060000D03*
D35*
X86305000Y-56097480D03*
D36*
X85035000Y-56097480D03*
X83765000Y-56097480D03*
X82495000Y-56097480D03*
X82495000Y-50702520D03*
X83765000Y-50702520D03*
X85035000Y-50702520D03*
X86305000Y-50702520D03*
D37*
X68602520Y-43010000D03*
D38*
X68602520Y-41740000D03*
X68602520Y-40470000D03*
X68602520Y-39200000D03*
X68602520Y-37930000D03*
X68602520Y-36660000D03*
X68602520Y-35390000D03*
X73997480Y-35390000D03*
X73997480Y-36660000D03*
X73997480Y-37930000D03*
X73997480Y-39200000D03*
X73997480Y-40470000D03*
X73997480Y-41740000D03*
X73997480Y-43010000D03*
D39*
X107955000Y-68499000D03*
D40*
X106685000Y-68499000D03*
X105415000Y-68499000D03*
X104145000Y-68499000D03*
X102875000Y-68499000D03*
X101605000Y-68499000D03*
X100335000Y-68499000D03*
X99065000Y-68499000D03*
X97795000Y-68499000D03*
X96525000Y-68499000D03*
X95255000Y-68499000D03*
X93985000Y-68499000D03*
X92715000Y-68499000D03*
X91445000Y-68499000D03*
X91445000Y-59101000D03*
X92715000Y-59101000D03*
X93985000Y-59101000D03*
X95255000Y-59101000D03*
X96525000Y-59101000D03*
X97795000Y-59101000D03*
X99065000Y-59101000D03*
X100335000Y-59101000D03*
X101605000Y-59101000D03*
X102875000Y-59101000D03*
X104145000Y-59101000D03*
X105415000Y-59101000D03*
X106685000Y-59101000D03*
X107955000Y-59101000D03*
D41*
X72000000Y-30900000D03*
X73900000Y-30900000D03*
D42*
X72950000Y-33100000D03*
D41*
X76000000Y-30900000D03*
X77900000Y-30900000D03*
D42*
X76950000Y-33100000D03*
D41*
X79650000Y-30900000D03*
X81550000Y-30900000D03*
D42*
X80600000Y-33100000D03*
D43*
X39500000Y-18000000D03*
X35000000Y-18000000D03*
D44*
X44950220Y-18000000D03*
X49049780Y-18000000D03*
D45*
X71500000Y-38400000D03*
X72000000Y-38100000D03*
X72500000Y-38400000D03*
D46*
X72000000Y-38900000D03*
X72000000Y-37600000D03*
D45*
X72400000Y-35800000D03*
X71900000Y-36100000D03*
X71400000Y-35800000D03*
D46*
X71900000Y-35300000D03*
X71900000Y-36600000D03*
M02*
